<svg width="448" height="260" viewBox="0 0 448 260" fill="none" xmlns="http://www.w3.org/2000/svg">
<path opacity="0.3" fill-rule="evenodd" clip-rule="evenodd" d="M93.332 38.334C93.332 37.7817 93.7797 37.334 94.332 37.334H353.665C354.218 37.334 354.665 37.7817 354.665 38.334V241.667C354.665 242.22 354.218 242.667 353.665 242.667H94.332C93.7798 242.667 93.332 242.22 93.332 241.667V38.334ZM130.664 94.334C130.664 93.7817 131.112 93.334 131.664 93.334H260.331C260.883 93.334 261.331 93.7817 261.331 94.334V111.001C261.331 111.553 260.883 112.001 260.331 112.001H131.664C131.112 112.001 130.664 111.553 130.664 111.001V94.334ZM131.664 130.668C131.112 130.668 130.664 131.116 130.664 131.668V148.335C130.664 148.887 131.112 149.335 131.664 149.335H204.331C204.883 149.335 205.331 148.887 205.331 148.335V131.668C205.331 131.116 204.883 130.668 204.331 130.668H131.664Z" fill="white"/>
<path fill-rule="evenodd" clip-rule="evenodd" d="M56 112.979C56 112.571 56.4621 112.335 56.7927 112.573L224 233.334L391.207 112.573C391.538 112.335 392 112.571 392 112.979V352.668C392 353.772 391.105 354.668 390 354.668H58C56.8954 354.668 56 353.772 56 352.668V112.979Z" fill="white"/>
</svg>
